<mxfile host="app.diagrams.net" modified="2022-08-14T10:03:47.313Z" agent="5.0 (Windows NT 10.0; Win64; x64) AppleWebKit/537.36 (KHTML, like Gecko) Chrome/104.0.5112.81 Safari/537.36 Edg/104.0.1293.54" etag="bQ6zeX9ferfe9yoe6ATe" version="20.2.3" type="github">
  <diagram id="Tzyg1rRwQElNsvIWdB42" name="第 1 页">
    <mxGraphModel dx="1038" dy="547" grid="1" gridSize="10" guides="1" tooltips="1" connect="1" arrows="1" fold="1" page="1" pageScale="1" pageWidth="827" pageHeight="1169" math="0" shadow="0">
      <root>
        <mxCell id="0" />
        <mxCell id="1" parent="0" />
        <mxCell id="ahKB47M7NgR0a1aFMBiC-13" style="edgeStyle=orthogonalEdgeStyle;rounded=0;orthogonalLoop=1;jettySize=auto;html=1;exitX=0;exitY=1;exitDx=0;exitDy=0;" edge="1" parent="1" source="ahKB47M7NgR0a1aFMBiC-1" target="ahKB47M7NgR0a1aFMBiC-2">
          <mxGeometry relative="1" as="geometry" />
        </mxCell>
        <mxCell id="ahKB47M7NgR0a1aFMBiC-14" style="edgeStyle=orthogonalEdgeStyle;rounded=0;orthogonalLoop=1;jettySize=auto;html=1;exitX=1;exitY=1;exitDx=0;exitDy=0;" edge="1" parent="1" source="ahKB47M7NgR0a1aFMBiC-1" target="ahKB47M7NgR0a1aFMBiC-3">
          <mxGeometry relative="1" as="geometry" />
        </mxCell>
        <mxCell id="ahKB47M7NgR0a1aFMBiC-1" value="10" style="ellipse;whiteSpace=wrap;html=1;aspect=fixed;" vertex="1" parent="1">
          <mxGeometry x="400" y="90" width="70" height="70" as="geometry" />
        </mxCell>
        <mxCell id="ahKB47M7NgR0a1aFMBiC-11" style="edgeStyle=orthogonalEdgeStyle;rounded=0;orthogonalLoop=1;jettySize=auto;html=1;exitX=0;exitY=1;exitDx=0;exitDy=0;entryX=0.5;entryY=0;entryDx=0;entryDy=0;" edge="1" parent="1" source="ahKB47M7NgR0a1aFMBiC-2" target="ahKB47M7NgR0a1aFMBiC-4">
          <mxGeometry relative="1" as="geometry" />
        </mxCell>
        <mxCell id="ahKB47M7NgR0a1aFMBiC-17" style="edgeStyle=orthogonalEdgeStyle;rounded=0;orthogonalLoop=1;jettySize=auto;html=1;exitX=1;exitY=1;exitDx=0;exitDy=0;entryX=0.5;entryY=0;entryDx=0;entryDy=0;" edge="1" parent="1" source="ahKB47M7NgR0a1aFMBiC-2" target="ahKB47M7NgR0a1aFMBiC-5">
          <mxGeometry relative="1" as="geometry" />
        </mxCell>
        <mxCell id="ahKB47M7NgR0a1aFMBiC-2" value="7" style="ellipse;whiteSpace=wrap;html=1;aspect=fixed;" vertex="1" parent="1">
          <mxGeometry x="310" y="200" width="80" height="80" as="geometry" />
        </mxCell>
        <mxCell id="ahKB47M7NgR0a1aFMBiC-15" style="edgeStyle=orthogonalEdgeStyle;rounded=0;orthogonalLoop=1;jettySize=auto;html=1;exitX=1;exitY=1;exitDx=0;exitDy=0;entryX=0.5;entryY=0;entryDx=0;entryDy=0;" edge="1" parent="1" source="ahKB47M7NgR0a1aFMBiC-3" target="ahKB47M7NgR0a1aFMBiC-7">
          <mxGeometry relative="1" as="geometry" />
        </mxCell>
        <mxCell id="ahKB47M7NgR0a1aFMBiC-16" style="edgeStyle=orthogonalEdgeStyle;rounded=0;orthogonalLoop=1;jettySize=auto;html=1;exitX=0;exitY=1;exitDx=0;exitDy=0;entryX=0.5;entryY=0;entryDx=0;entryDy=0;" edge="1" parent="1" source="ahKB47M7NgR0a1aFMBiC-3" target="ahKB47M7NgR0a1aFMBiC-6">
          <mxGeometry relative="1" as="geometry" />
        </mxCell>
        <mxCell id="ahKB47M7NgR0a1aFMBiC-3" value="12" style="ellipse;whiteSpace=wrap;html=1;aspect=fixed;" vertex="1" parent="1">
          <mxGeometry x="480" y="200" width="80" height="80" as="geometry" />
        </mxCell>
        <mxCell id="ahKB47M7NgR0a1aFMBiC-4" value="5" style="ellipse;whiteSpace=wrap;html=1;aspect=fixed;" vertex="1" parent="1">
          <mxGeometry x="260" y="300" width="80" height="80" as="geometry" />
        </mxCell>
        <mxCell id="ahKB47M7NgR0a1aFMBiC-5" value="9" style="ellipse;whiteSpace=wrap;html=1;aspect=fixed;" vertex="1" parent="1">
          <mxGeometry x="350" y="300" width="80" height="80" as="geometry" />
        </mxCell>
        <mxCell id="ahKB47M7NgR0a1aFMBiC-6" value="11" style="ellipse;whiteSpace=wrap;html=1;aspect=fixed;" vertex="1" parent="1">
          <mxGeometry x="440" y="300" width="80" height="80" as="geometry" />
        </mxCell>
        <mxCell id="ahKB47M7NgR0a1aFMBiC-7" value="13" style="ellipse;whiteSpace=wrap;html=1;aspect=fixed;" vertex="1" parent="1">
          <mxGeometry x="530" y="300" width="80" height="80" as="geometry" />
        </mxCell>
        <mxCell id="ahKB47M7NgR0a1aFMBiC-18" value="" style="shape=table;html=1;whiteSpace=wrap;startSize=0;container=1;collapsible=0;childLayout=tableLayout;" vertex="1" parent="1">
          <mxGeometry x="170" y="500" width="200" height="40" as="geometry" />
        </mxCell>
        <mxCell id="ahKB47M7NgR0a1aFMBiC-19" value="" style="shape=tableRow;horizontal=0;startSize=0;swimlaneHead=0;swimlaneBody=0;top=0;left=0;bottom=0;right=0;collapsible=0;dropTarget=0;fillColor=none;points=[[0,0.5],[1,0.5]];portConstraint=eastwest;" vertex="1" parent="ahKB47M7NgR0a1aFMBiC-18">
          <mxGeometry width="200" height="40" as="geometry" />
        </mxCell>
        <mxCell id="ahKB47M7NgR0a1aFMBiC-20" value="0" style="shape=partialRectangle;html=1;whiteSpace=wrap;connectable=0;fillColor=none;top=0;left=0;bottom=0;right=0;overflow=hidden;" vertex="1" parent="ahKB47M7NgR0a1aFMBiC-19">
          <mxGeometry width="67" height="40" as="geometry">
            <mxRectangle width="67" height="40" as="alternateBounds" />
          </mxGeometry>
        </mxCell>
        <mxCell id="ahKB47M7NgR0a1aFMBiC-21" value="0" style="shape=partialRectangle;html=1;whiteSpace=wrap;connectable=0;fillColor=none;top=0;left=0;bottom=0;right=0;overflow=hidden;" vertex="1" parent="ahKB47M7NgR0a1aFMBiC-19">
          <mxGeometry x="67" width="66" height="40" as="geometry">
            <mxRectangle width="66" height="40" as="alternateBounds" />
          </mxGeometry>
        </mxCell>
        <mxCell id="ahKB47M7NgR0a1aFMBiC-22" value="1" style="shape=partialRectangle;html=1;whiteSpace=wrap;connectable=0;fillColor=none;top=0;left=0;bottom=0;right=0;overflow=hidden;" vertex="1" parent="ahKB47M7NgR0a1aFMBiC-19">
          <mxGeometry x="133" width="67" height="40" as="geometry">
            <mxRectangle width="67" height="40" as="alternateBounds" />
          </mxGeometry>
        </mxCell>
        <mxCell id="ahKB47M7NgR0a1aFMBiC-46" value="" style="shape=table;html=1;whiteSpace=wrap;startSize=0;container=1;collapsible=0;childLayout=tableLayout;" vertex="1" parent="1">
          <mxGeometry x="370" y="500" width="200" height="40" as="geometry" />
        </mxCell>
        <mxCell id="ahKB47M7NgR0a1aFMBiC-47" value="" style="shape=tableRow;horizontal=0;startSize=0;swimlaneHead=0;swimlaneBody=0;top=0;left=0;bottom=0;right=0;collapsible=0;dropTarget=0;fillColor=none;points=[[0,0.5],[1,0.5]];portConstraint=eastwest;" vertex="1" parent="ahKB47M7NgR0a1aFMBiC-46">
          <mxGeometry width="200" height="40" as="geometry" />
        </mxCell>
        <mxCell id="ahKB47M7NgR0a1aFMBiC-48" value="1" style="shape=partialRectangle;html=1;whiteSpace=wrap;connectable=0;fillColor=none;top=0;left=0;bottom=0;right=0;overflow=hidden;" vertex="1" parent="ahKB47M7NgR0a1aFMBiC-47">
          <mxGeometry width="67" height="40" as="geometry">
            <mxRectangle width="67" height="40" as="alternateBounds" />
          </mxGeometry>
        </mxCell>
        <mxCell id="ahKB47M7NgR0a1aFMBiC-49" value="1" style="shape=partialRectangle;html=1;whiteSpace=wrap;connectable=0;fillColor=none;top=0;left=0;bottom=0;right=0;overflow=hidden;" vertex="1" parent="ahKB47M7NgR0a1aFMBiC-47">
          <mxGeometry x="67" width="66" height="40" as="geometry">
            <mxRectangle width="66" height="40" as="alternateBounds" />
          </mxGeometry>
        </mxCell>
        <mxCell id="ahKB47M7NgR0a1aFMBiC-50" value="2" style="shape=partialRectangle;html=1;whiteSpace=wrap;connectable=0;fillColor=none;top=0;left=0;bottom=0;right=0;overflow=hidden;" vertex="1" parent="ahKB47M7NgR0a1aFMBiC-47">
          <mxGeometry x="133" width="67" height="40" as="geometry">
            <mxRectangle width="67" height="40" as="alternateBounds" />
          </mxGeometry>
        </mxCell>
        <mxCell id="ahKB47M7NgR0a1aFMBiC-51" value="" style="shape=table;html=1;whiteSpace=wrap;startSize=0;container=1;collapsible=0;childLayout=tableLayout;" vertex="1" parent="1">
          <mxGeometry x="570" y="500" width="200" height="40" as="geometry" />
        </mxCell>
        <mxCell id="ahKB47M7NgR0a1aFMBiC-52" value="" style="shape=tableRow;horizontal=0;startSize=0;swimlaneHead=0;swimlaneBody=0;top=0;left=0;bottom=0;right=0;collapsible=0;dropTarget=0;fillColor=none;points=[[0,0.5],[1,0.5]];portConstraint=eastwest;" vertex="1" parent="ahKB47M7NgR0a1aFMBiC-51">
          <mxGeometry width="200" height="40" as="geometry" />
        </mxCell>
        <mxCell id="ahKB47M7NgR0a1aFMBiC-53" value="0" style="shape=partialRectangle;html=1;whiteSpace=wrap;connectable=0;fillColor=none;top=0;left=0;bottom=0;right=0;overflow=hidden;" vertex="1" parent="ahKB47M7NgR0a1aFMBiC-52">
          <mxGeometry width="67" height="40" as="geometry">
            <mxRectangle width="67" height="40" as="alternateBounds" />
          </mxGeometry>
        </mxCell>
        <mxCell id="ahKB47M7NgR0a1aFMBiC-54" value="2" style="shape=partialRectangle;html=1;whiteSpace=wrap;connectable=0;fillColor=none;top=0;left=0;bottom=0;right=0;overflow=hidden;" vertex="1" parent="ahKB47M7NgR0a1aFMBiC-52">
          <mxGeometry x="67" width="66" height="40" as="geometry">
            <mxRectangle width="66" height="40" as="alternateBounds" />
          </mxGeometry>
        </mxCell>
        <mxCell id="ahKB47M7NgR0a1aFMBiC-55" value="2" style="shape=partialRectangle;html=1;whiteSpace=wrap;connectable=0;fillColor=none;top=0;left=0;bottom=0;right=0;overflow=hidden;" vertex="1" parent="ahKB47M7NgR0a1aFMBiC-52">
          <mxGeometry x="133" width="67" height="40" as="geometry">
            <mxRectangle width="67" height="40" as="alternateBounds" />
          </mxGeometry>
        </mxCell>
        <mxCell id="ahKB47M7NgR0a1aFMBiC-59" value="" style="shape=flexArrow;endArrow=classic;html=1;rounded=0;width=8;endSize=11.07;" edge="1" parent="1">
          <mxGeometry width="50" height="50" relative="1" as="geometry">
            <mxPoint x="540" y="410" as="sourcePoint" />
            <mxPoint x="540" y="500" as="targetPoint" />
            <Array as="points">
              <mxPoint x="540" y="450" />
            </Array>
          </mxGeometry>
        </mxCell>
        <mxCell id="ahKB47M7NgR0a1aFMBiC-66" value="" style="group" vertex="1" connectable="0" parent="1">
          <mxGeometry x="320" y="540" width="40" height="100" as="geometry" />
        </mxCell>
        <mxCell id="ahKB47M7NgR0a1aFMBiC-57" value="" style="shape=flexArrow;endArrow=classic;html=1;rounded=0;" edge="1" parent="ahKB47M7NgR0a1aFMBiC-66">
          <mxGeometry width="50" height="50" relative="1" as="geometry">
            <mxPoint x="20" y="70" as="sourcePoint" />
            <mxPoint x="20" as="targetPoint" />
          </mxGeometry>
        </mxCell>
        <mxCell id="ahKB47M7NgR0a1aFMBiC-60" value="p0&lt;br&gt;" style="text;html=1;align=center;verticalAlign=middle;resizable=0;points=[];autosize=1;strokeColor=none;fillColor=none;" vertex="1" parent="ahKB47M7NgR0a1aFMBiC-66">
          <mxGeometry y="70" width="40" height="30" as="geometry" />
        </mxCell>
        <mxCell id="ahKB47M7NgR0a1aFMBiC-67" value="" style="group" vertex="1" connectable="0" parent="1">
          <mxGeometry x="590" y="540" width="40" height="95" as="geometry" />
        </mxCell>
        <mxCell id="ahKB47M7NgR0a1aFMBiC-58" value="" style="shape=flexArrow;endArrow=classic;html=1;rounded=0;width=10;endSize=5.07;" edge="1" parent="ahKB47M7NgR0a1aFMBiC-67">
          <mxGeometry width="50" height="50" relative="1" as="geometry">
            <mxPoint x="20" y="70" as="sourcePoint" />
            <mxPoint x="20" as="targetPoint" />
          </mxGeometry>
        </mxCell>
        <mxCell id="ahKB47M7NgR0a1aFMBiC-61" value="p2" style="text;html=1;align=center;verticalAlign=middle;resizable=0;points=[];autosize=1;strokeColor=none;fillColor=none;" vertex="1" parent="ahKB47M7NgR0a1aFMBiC-67">
          <mxGeometry y="65" width="40" height="30" as="geometry" />
        </mxCell>
      </root>
    </mxGraphModel>
  </diagram>
</mxfile>
